<svg width="22" height="22" viewBox="0 0 22 22" fill="none" xmlns="http://www.w3.org/2000/svg">
<path d="M19.736 18.7632L15.4331 14.4604C16.5276 13.1487 17.1876 11.4629 17.1876 9.625C17.1876 5.45508 13.795 2.0625 9.62512 2.0625C5.45521 2.0625 2.06262 5.45508 2.06262 9.625C2.06262 13.7949 5.45521 17.1875 9.62512 17.1875C11.463 17.1875 13.1488 16.5276 14.4605 15.4331L18.7634 19.7359C18.8972 19.8697 19.0732 19.9375 19.2492 19.9375C19.4252 19.9375 19.6012 19.8706 19.735 19.7359C20.0045 19.4673 20.0045 19.0318 19.736 18.7632ZM3.43762 9.625C3.43762 6.21317 6.21329 3.4375 9.62512 3.4375C13.037 3.4375 15.8126 6.21317 15.8126 9.625C15.8126 13.0368 13.037 15.8125 9.62512 15.8125C6.21329 15.8125 3.43762 13.0368 3.43762 9.625Z" fill="#222529"/>
</svg>
